<?xml version="1.0" standalone="no"?>
<!DOCTYPE svg PUBLIC "-//W3C//DTD SVG 20010904//EN"
 "http://www.w3.org/TR/2001/REC-SVG-20010904/DTD/svg10.dtd">
<svg version="1.0" xmlns="http://www.w3.org/2000/svg"
 width="1024.000000pt" height="1024.000000pt" viewBox="0 0 1024.000000 1024.000000"
 preserveAspectRatio="xMidYMid meet">

<g transform="translate(0.000000,1024.000000) scale(0.100000,-0.100000)"
fill="#000000" stroke="none">
<path d="M4999 8532 c-41 -20 -213 -116 -384 -211 -170 -96 -400 -223 -510
-284 -907 -499 -955 -527 -977 -568 -21 -38 -19 -86 7 -125 9 -13 63 -48 123
-78 59 -30 116 -64 127 -76 18 -20 20 -39 23 -238 2 -146 -1 -224 -8 -243 -7
-15 -30 -40 -52 -55 -22 -15 -53 -48 -70 -72 -82 -119 -77 -260 14 -388 l42
-59 6 -135 c7 -144 15 -172 65 -222 82 -83 242 -53 294 54 18 38 21 62 21 174
l0 130 45 70 c111 174 90 336 -58 448 -64 49 -67 62 -67 276 0 221 6 248 67
278 21 11 130 58 243 105 113 47 288 121 390 165 348 150 755 320 782 327 38
10 114 -29 139 -69 23 -37 25 -96 4 -136 -22 -42 23 -21 -765 -349 -443 -185
-530 -223 -530 -230 0 -9 27 -22 390 -191 162 -76 383 -179 490 -230 255 -122
252 -121 430 -42 555 247 1324 586 1514 668 127 55 242 111 258 126 22 21 28
35 28 70 0 24 -6 52 -12 61 -12 14 -354 208 -1098 620 -129 71 -352 195 -495
275 -348 194 -344 192 -375 192 -16 0 -61 -17 -101 -38z"/>
<path d="M6125 6712 c-179 -92 -356 -178 -660 -322 -71 -34 -168 -80 -215
-103 -62 -31 -97 -42 -130 -41 -42 0 -176 56 -645 269 -269 121 -503 225 -510
225 -7 0 17 -81 41 -140 76 -185 73 -299 -15 -475 -40 -79 -40 -81 -43 -210
-4 -126 -5 -132 -38 -194 -40 -75 -102 -128 -187 -163 -51 -20 -75 -22 -203
-22 -129 0 -151 2 -205 23 -120 48 -195 159 -195 290 0 63 -8 81 -31 72 -34
-13 -463 -268 -507 -301 -67 -50 -104 -124 -109 -214 -4 -63 -1 -77 24 -126
21 -42 39 -61 73 -80 l45 -25 2489 -3 c1693 -1 2500 1 2527 8 87 24 138 101
139 211 0 88 -24 153 -75 203 -27 27 -179 118 -450 270 -776 434 -867 488
-892 525 -22 32 -23 42 -23 227 0 107 -3 194 -7 194 -5 0 -93 -44 -198 -98z"/>
<path d="M3014 4976 c-38 -17 -74 -73 -81 -126 -8 -60 33 -137 102 -189 42
-32 57 -50 65 -81 7 -27 10 -287 8 -817 l-3 -778 -23 -37 c-13 -21 -27 -38
-31 -38 -19 0 -112 -108 -127 -146 -30 -80 -8 -158 60 -208 27 -20 41 -21 459
-24 290 -2 444 0 469 8 50 14 92 59 108 113 20 73 -6 136 -91 219 -38 36 -73
78 -79 93 -6 17 -10 316 -10 832 l0 806 60 58 c33 32 67 74 75 93 30 71 13
147 -44 201 l-32 30 -427 2 c-343 2 -433 0 -458 -11z"/>
<path d="M4690 4972 c-110 -55 -107 -221 6 -307 67 -51 64 -12 64 -879 0 -531
-3 -794 -11 -813 -6 -15 -39 -58 -75 -95 -127 -131 -137 -243 -30 -322 26 -20
42 -21 327 -24 l299 -3 0 43 c0 75 20 170 52 246 28 68 54 110 143 236 l35 48
0 733 c0 490 4 742 11 762 5 17 33 50 61 74 88 74 110 170 58 254 -40 65 -44
65 -497 65 -368 0 -411 -2 -443 -18z"/>
<path d="M6374 4976 c-100 -44 -134 -208 -64 -305 37 -50 82 -73 185 -96 335
-72 608 -210 774 -391 l51 -56 0 359 c0 204 -4 373 -10 393 -5 20 -26 51 -45
70 l-36 35 -412 2 c-332 2 -418 0 -443 -11z"/>
<path d="M6038 4310 c-77 -23 -127 -102 -114 -181 14 -86 61 -119 196 -139
417 -59 716 -200 949 -446 107 -113 172 -206 232 -329 85 -178 126 -345 136
-550 10 -207 -23 -372 -84 -425 -54 -48 -144 -35 -192 26 -21 27 -22 33 -14
154 10 157 7 242 -13 349 -78 422 -435 766 -909 876 -122 28 -177 29 -224 6
-99 -51 -121 -184 -43 -261 34 -34 45 -39 157 -59 212 -40 340 -105 480 -245
146 -147 215 -307 215 -501 0 -315 -215 -594 -535 -695 -95 -30 -290 -38 -392
-17 -145 31 -263 93 -375 196 -68 62 -143 159 -166 214 l-12 27 -1352 0
c-1345 0 -1352 0 -1394 -21 -52 -25 -100 -93 -109 -154 -4 -23 -5 -89 -3 -147
4 -131 29 -189 99 -228 l44 -25 2310 -3 c1642 -2 2329 1 2374 8 97 17 167 54
241 129 133 134 201 331 220 636 4 72 6 141 4 155 -1 14 -5 68 -9 120 -11 179
-65 378 -149 555 -228 479 -635 793 -1206 929 -98 24 -294 57 -322 55 -7 0
-25 -4 -40 -9z"/>
<path d="M5907 2936 c-114 -41 -193 -113 -245 -224 -24 -50 -27 -70 -27 -158
0 -96 2 -103 37 -176 59 -118 148 -186 279 -214 186 -39 371 52 452 223 30 63
32 76 32 173 0 93 -3 112 -27 162 -90 192 -304 283 -501 214z"/>
</g>
</svg>
