<?xml version="1.0" encoding="utf-8"?>
<svg width="32" height="32" viewBox="0 0 32 32" fill="none" xmlns="http://www.w3.org/2000/svg">
  <circle cx="16" cy="16" r="16" fill="#1da1f2"/>
  <path d="M25 12.3c-0.6 0.3-1.2 0.5-1.8 0.6 0.7-0.4 1.2-1 1.5-1.7-0.7 0.4-1.4 0.7-2.2 0.9-0.7-0.7-1.7-1.1-2.7-1.1-2 0-3.5 1.8-3 3.7-2.7-0.1-5.1-1.4-6.7-3.4-0.3 0.6-0.5 1.2-0.5 1.9 0 1.3 0.7 2.4 1.7 3-0.6 0-1.2-0.2-1.7-0.5v0.1c0 1.8 1.3 3.3 3.1 3.6-0.3 0.1-0.6 0.2-0.9 0.2-0.2 0-0.4 0-0.6-0.1 0.4 1.3 1.7 2.3 3.2 2.3-1.2 1-2.7 1.6-4.3 1.6-0.3 0-0.6 0-0.9-0.1 1.5 1 3.3 1.6 5.2 1.6 6.2 0 9.6-5.1 9.6-9.6v-0.4c0.7-0.5 1.2-1.1 1.6-1.8z" fill="#fff"/>
</svg>
